<svg width="157" height="26" viewBox="0 0 157 26" fill="none" xmlns="http://www.w3.org/2000/svg">
<path d="M17.392 25.64C7.088 25.64 0.431997 21.288 0.431997 13.288V13.128C0.431997 5.096 7.024 0.679998 17.424 0.679998C26.352 0.679998 33.488 4.68 33.68 10.152V10.248H25.232V10.152C24.752 8.072 21.328 6.408 17.392 6.408C12.432 6.408 9.104 8.616 9.104 13.096V13.288C9.104 17.544 12.496 19.816 17.424 19.816C20.688 19.816 24.336 18.888 25.552 16.424L25.584 16.36H16.112V12.04H33.68V12.584C33.68 21.576 26.928 25.64 17.392 25.64ZM51.5487 25.64C40.1887 25.64 36.2207 21.576 36.2207 13.736V1.224H44.8287V13.736C44.8287 17.736 47.1007 19.72 51.5807 19.72C56.0287 19.72 58.2687 17.736 58.2687 13.8V1.224H66.8767V13.8C66.8767 21.448 63.1007 25.64 51.5487 25.64ZM97.0828 25H71.0028V1.224H96.7628V7.048H79.6108V10.28H95.3868V15.4H79.6108V19.176H97.0828V25ZM113.036 25.64C102.796 25.64 98.7322 21.544 98.5402 16.84H106.732C106.86 18.984 108.396 20.104 113.1 20.104C117.1 20.104 118.54 19.336 118.54 18.024C118.54 16.936 118.092 16.424 112.044 15.784C101.324 14.76 99.4682 11.784 99.4682 7.88C99.4682 4.2 102.54 0.679998 112.428 0.679998C122.092 0.679998 125.932 4.424 126.348 9.416H118.476C118.188 7.72 117.004 6.184 112.748 6.184C109.164 6.184 107.948 6.888 107.948 8.04C107.948 8.936 108.204 9.768 112.876 10.216C125.708 11.432 127.02 14.568 127.02 17.8C127.02 23.112 122.22 25.64 113.036 25.64ZM146.316 25H137.708V7.08H127.628V1.224H156.364V7.08H146.316V25Z" fill="#677043"/>
</svg>
