<svg width="263" height="26" viewBox="0 0 263 26" fill="none" xmlns="http://www.w3.org/2000/svg">
<path d="M15.1969 25.64C4.95687 25.64 0.892869 21.544 0.700869 16.84H8.89287C9.02087 18.984 10.5569 20.104 15.2609 20.104C19.2609 20.104 20.7009 19.336 20.7009 18.024C20.7009 16.936 20.2529 16.424 14.2049 15.784C3.48487 14.76 1.62887 11.784 1.62887 7.88C1.62887 4.2 4.70087 0.679998 14.5889 0.679998C24.2529 0.679998 28.0929 4.424 28.5089 9.416H20.6369C20.3489 7.72 19.1649 6.184 14.9089 6.184C11.3249 6.184 10.1089 6.888 10.1089 8.04C10.1089 8.936 10.3649 9.768 15.0369 10.216C27.8689 11.432 29.1809 14.568 29.1809 17.8C29.1809 23.112 24.3809 25.64 15.1969 25.64ZM48.4771 25H39.8691V7.08H29.7891V1.224H58.5251V7.08H48.4771V25ZM88.9324 25H79.4924L77.7324 20.776H65.2844L63.5244 25H54.1164L65.5404 1.224H77.3484L88.9324 25ZM71.2364 6.6L67.4924 15.496H75.5564L71.8444 6.6L71.5564 5.928H71.4924L71.2364 6.6ZM99.1584 25H91.2224V1.224H100.15L115.51 15.848L115.766 16.136V1.224H123.702V25H114.806L99.3504 10.344L99.1584 10.152V25ZM145.349 25H128.581V1.224H145.349C156.069 1.224 160.741 6.472 160.741 13.128C160.741 19.56 156.421 25 145.349 25ZM137.189 7.08V19.112H143.749C149.285 19.112 152.037 17.352 152.037 13.128C152.037 8.872 149.285 7.08 143.717 7.08H137.189ZM194.82 25H185.38L183.62 20.776H171.172L169.412 25H160.004L171.428 1.224H183.236L194.82 25ZM177.124 6.6L173.38 15.496H181.444L177.732 6.6L177.444 5.928H177.38L177.124 6.6ZM205.718 25H197.11V1.224H214.326C223.286 1.224 226.486 4.328 226.486 8.488C226.486 11.816 224.31 14.056 220.566 14.792V14.824C223.318 15.528 224.438 16.424 225.238 20.008L225.558 21.32C225.942 23.048 226.262 23.88 226.742 25H217.942C217.622 24.392 217.43 23.752 216.982 21.704L216.662 20.296C216.342 18.792 215.094 18.088 211.606 18.088H205.718V25ZM205.718 7.048V12.584H213.814C216.47 12.584 217.91 11.496 217.91 9.64C217.91 7.912 216.47 7.048 213.814 7.048H205.718ZM246.674 25H229.906V1.224H246.674C257.394 1.224 262.066 6.472 262.066 13.128C262.066 19.56 257.746 25 246.674 25ZM238.514 7.08V19.112H245.074C250.61 19.112 253.362 17.352 253.362 13.128C253.362 8.872 250.61 7.08 245.042 7.08H238.514Z" fill="#915200"/>
</svg>
