<svg width="81" height="24" viewBox="0 0 81 24" fill="none" xmlns="http://www.w3.org/2000/svg">
<path d="M12.2076 24L0.94362 0.223999H10.3516L17.9036 17.952L18.1596 18.72H18.1916L18.4796 17.952L25.9996 0.223999H35.4396L23.9836 24H12.2076ZM46.3451 24H37.7371V0.223999H46.3451V24ZM59.8286 24H51.2206V0.223999H68.6926C76.3086 0.223999 80.6606 3.328 80.6606 8.704C80.6606 14.048 76.4686 17.76 68.7566 17.76H59.8286V24ZM59.8286 6.08V11.904H68.4366C71.0606 11.904 72.0206 10.464 72.0206 8.832C72.0206 7.552 71.0606 6.08 68.4046 6.08H59.8286Z" fill="white"/>
</svg>
