<svg width="88" height="44" viewBox="0 0 88 44" fill="none" xmlns="http://www.w3.org/2000/svg">
<path d="M36.9591 22C36.9591 30.272 30.2711 36.96 21.9991 36.96C13.7271 36.96 7.03906 30.272 7.03906 22C7.03906 13.728 13.7271 7.03996 21.9991 7.03996C30.2711 7.03996 36.9591 13.728 36.9591 22ZM8.79906 22C8.79906 29.304 14.6951 35.2 21.9991 35.2C29.3031 35.2 35.1991 29.304 35.1991 22C35.1991 14.696 29.3031 8.79996 21.9991 8.79996C14.6951 8.79996 8.79906 14.696 8.79906 22Z" fill="#395500"/>
<path d="M23.4965 14.6961L16.1925 22.0001L23.4965 29.3041L22.2645 30.5361L13.7285 22.0001L22.2645 13.4641L23.4965 14.6961Z" fill="#395500"/>
<path d="M14.9609 22.8799V21.1199L29.9209 21.1199V22.8799L14.9609 22.8799Z" fill="#395500"/>
<path d="M51.0409 22C51.0409 30.272 57.7289 36.96 66.0009 36.96C74.2729 36.96 80.9609 30.272 80.9609 22C80.9609 13.728 74.2729 7.03996 66.0009 7.03996C57.7289 7.03996 51.0409 13.728 51.0409 22ZM79.2009 22C79.2009 29.304 73.3049 35.2 66.0009 35.2C58.6969 35.2 52.8009 29.304 52.8009 22C52.8009 14.696 58.6969 8.79996 66.0009 8.79996C73.3049 8.79996 79.2009 14.696 79.2009 22Z" fill="#395500"/>
<path d="M64.5035 14.6961L71.8075 22.0001L64.5035 29.3041L65.7355 30.5361L74.2715 22.0001L65.7355 13.4641L64.5035 14.6961Z" fill="#395500"/>
<path d="M73.0391 22.8799V21.1199L58.0791 21.1199V22.8799L73.0391 22.8799Z" fill="#395500"/>
</svg>
