<svg width="32" height="32" viewBox="0 0 32 32" fill="none" xmlns="http://www.w3.org/2000/svg">
<path d="M26.668 15.9993C26.668 18.8283 25.5442 21.5414 23.5438 23.5418C21.5434 25.5422 18.8303 26.666 16.0013 26.666C13.1723 26.666 10.4592 25.5422 8.45883 23.5418C6.45844 21.5414 5.33464 18.8283 5.33464 15.9993C5.33464 13.1704 6.45844 10.4573 8.45883 8.45688C10.4592 6.45649 13.1723 5.33268 16.0013 5.33268C18.8303 5.33268 21.5434 6.45649 23.5438 8.45688C25.5442 10.4573 26.668 13.1704 26.668 15.9993ZM16.0013 29.3327C23.3653 29.3327 29.3346 23.3633 29.3346 15.9993C29.3346 8.63535 23.3653 2.66602 16.0013 2.66602C8.6373 2.66602 2.66797 8.63535 2.66797 15.9993C2.66797 23.3633 8.6373 29.3327 16.0013 29.3327ZM16.4786 12.5087C15.1826 13.0482 12.5911 14.1651 8.70397 15.8593C8.07197 16.11 7.7413 16.3553 7.71197 16.5953C7.6613 17.0007 8.1693 17.1607 8.8613 17.378L9.15197 17.4713C9.83197 17.6927 10.7493 17.9513 11.2253 17.962C11.6573 17.9709 12.1391 17.7931 12.6706 17.4287C16.3026 14.9753 18.1773 13.7358 18.2946 13.71C18.3786 13.6913 18.4933 13.6673 18.5706 13.7367C18.6493 13.806 18.6413 13.9367 18.6333 13.9727C18.5826 14.1873 16.588 16.042 15.556 17.0007C15.2502 17.2887 14.9466 17.5789 14.6453 17.8713C14.0133 18.4807 13.5386 18.938 14.672 19.6847C15.82 20.442 16.9786 21.1967 18.0986 21.9953C18.6506 22.39 19.1466 22.742 19.76 22.6873C20.116 22.654 20.484 22.3193 20.6706 21.3193C21.1133 18.9593 21.9813 13.842 22.1813 11.7327C22.1929 11.5577 22.1853 11.382 22.1586 11.2087C22.1429 11.0692 22.0753 10.9407 21.9693 10.8487C21.8093 10.718 21.5626 10.6913 21.4533 10.6927C20.952 10.702 20.1826 10.9687 16.48 12.5087" fill="#FFF9EC"/>
</svg>
