<svg width="33" height="33" viewBox="0 0 33 33" fill="none" xmlns="http://www.w3.org/2000/svg">
<path d="M31.5935 11.6917L28.7492 8.84735C28.5197 8.62097 28.2137 8.48877 27.8916 8.47684C27.5695 8.46491 27.2546 8.57411 27.009 8.7829C26.6298 9.10564 26.1432 9.27416 25.6456 9.25506C25.1481 9.23596 24.6759 9.03063 24.3225 8.67977C23.9719 8.3265 23.7667 7.8544 23.7476 7.35699C23.7285 6.85958 23.8969 6.37314 24.2194 5.99401C24.4282 5.74841 24.5374 5.4335 24.5255 5.11137C24.5135 4.78923 24.3814 4.48326 24.155 4.25378L21.3081 1.40624C21.0675 1.16611 20.7415 1.03125 20.4015 1.03125C20.0616 1.03125 19.7356 1.16611 19.495 1.40624L14.9607 5.93987C14.6808 6.22086 14.4697 6.56278 14.3439 6.9389C14.3194 7.01121 14.2786 7.07692 14.2246 7.13091C14.1706 7.18489 14.1049 7.22572 14.0326 7.2502C13.6563 7.376 13.3144 7.58736 13.0336 7.86767L1.40624 19.495C1.16611 19.7356 1.03125 20.0616 1.03125 20.4015C1.03125 20.7415 1.16611 21.0675 1.40624 21.3081L4.25378 24.1524C4.48326 24.3788 4.78923 24.511 5.11137 24.5229C5.4335 24.5348 5.74841 24.4256 5.99401 24.2168C6.37228 23.8915 6.85952 23.7211 7.35811 23.7398C7.85669 23.7585 8.32979 23.965 8.68259 24.3178C9.03539 24.6706 9.24184 25.1437 9.26056 25.6423C9.27928 26.1409 9.1089 26.6281 8.78354 27.0064C8.57475 27.252 8.46556 27.5669 8.47749 27.889C8.48942 28.2112 8.62161 28.5171 8.848 28.7466L11.6923 31.5909C11.9329 31.8311 12.2589 31.9659 12.5988 31.9659C12.9388 31.9659 13.2648 31.8311 13.5054 31.5909L25.1327 19.9636C25.4129 19.683 25.6243 19.3412 25.7502 18.9652C25.7746 18.8927 25.8154 18.8267 25.8695 18.7726C25.9237 18.7185 25.9896 18.6776 26.0621 18.6533C26.4381 18.5275 26.7798 18.3164 27.0605 18.0364L31.5942 13.5022C31.8334 13.2616 31.9677 12.9361 31.9675 12.5968C31.9674 12.2575 31.8329 11.9321 31.5935 11.6917ZM16.8743 9.78063C16.7786 9.87642 16.6649 9.9524 16.5398 10.0042C16.4146 10.0561 16.2805 10.0828 16.1451 10.0828C16.0096 10.0828 15.8755 10.0561 15.7504 10.0042C15.6252 9.9524 15.5115 9.87642 15.4158 9.78063L14.6739 9.03878C14.4852 8.84441 14.3806 8.5836 14.3826 8.31271C14.3847 8.04182 14.4932 7.78262 14.6848 7.59111C14.8764 7.3996 15.1357 7.29117 15.4065 7.28925C15.6774 7.28733 15.9382 7.39208 16.1325 7.58085L16.8743 8.32206C16.9701 8.41782 17.0461 8.53152 17.098 8.65665C17.1498 8.78178 17.1765 8.9159 17.1765 9.05135C17.1765 9.18679 17.1498 9.32091 17.098 9.44604C17.0461 9.57118 16.9701 9.68487 16.8743 9.78063ZM19.7103 12.6166C19.5169 12.8098 19.2547 12.9184 18.9813 12.9184C18.7079 12.9184 18.4457 12.8098 18.2524 12.6166L17.5434 11.9076C17.3499 11.7142 17.2413 11.4518 17.2413 11.1783C17.2413 10.9048 17.3499 10.6424 17.5434 10.449C17.7368 10.2556 17.9991 10.1469 18.2727 10.1469C18.5462 10.1469 18.8085 10.2556 19.0019 10.449L19.7109 11.158C19.807 11.2538 19.8833 11.3675 19.9354 11.4928C19.9875 11.6181 20.0143 11.7524 20.0143 11.8881C20.0144 12.0238 19.9877 12.1581 19.9357 12.2835C19.8838 12.4088 19.8076 12.5227 19.7116 12.6185L19.7103 12.6166ZM22.5462 15.4525C22.4505 15.5483 22.3368 15.6243 22.2116 15.6761C22.0865 15.728 21.9524 15.7546 21.8169 15.7546C21.6815 15.7546 21.5474 15.728 21.4222 15.6761C21.2971 15.6243 21.1834 15.5483 21.0876 15.4525L20.3787 14.7435C20.19 14.5492 20.0853 14.2883 20.0874 14.0175C20.0894 13.7466 20.198 13.4874 20.3896 13.2959C20.5812 13.1043 20.8404 12.9959 21.1113 12.994C21.3822 12.9921 21.6429 13.0968 21.8372 13.2856L22.5462 13.9946C22.6426 14.0902 22.7192 14.2039 22.7715 14.3291C22.8239 14.4544 22.851 14.5887 22.8513 14.7245C22.8516 14.8602 22.825 14.9947 22.7733 15.1202C22.7215 15.2457 22.6454 15.3597 22.5494 15.4557L22.5462 15.4525ZM25.4099 18.3233C25.3141 18.419 25.2004 18.495 25.0753 18.5469C24.9501 18.5987 24.816 18.6254 24.6806 18.6254C24.5451 18.6254 24.411 18.5987 24.2859 18.5469C24.1608 18.495 24.0471 18.419 23.9513 18.3233L23.214 17.582C23.1162 17.4866 23.0383 17.3726 22.985 17.2468C22.9316 17.1209 22.9038 16.9858 22.9031 16.8491C22.9025 16.7124 22.929 16.577 22.9812 16.4506C23.0333 16.3243 23.1101 16.2096 23.2069 16.1132C23.3038 16.0168 23.4189 15.9406 23.5455 15.889C23.6721 15.8375 23.8076 15.8116 23.9443 15.8129C24.081 15.8143 24.216 15.8427 24.3416 15.8967C24.4672 15.9507 24.5807 16.0291 24.6758 16.1273L25.4137 16.8679C25.5095 16.9637 25.5854 17.0774 25.6372 17.2026C25.689 17.3277 25.7156 17.4619 25.7155 17.5973C25.7155 17.7328 25.6887 17.8669 25.6369 17.992C25.585 18.1171 25.5089 18.2308 25.4131 18.3265L25.4099 18.3233Z" fill="#FFFEF5"/>
</svg>
